<svg width="375" height="50" viewBox="0 0 375 50" fill="none" xmlns="http://www.w3.org/2000/svg">
<rect width="77.0833" height="29.1667" fill="#EA3323"></rect>
<rect x="75" width="300" height="50" fill="#EA3323"></rect>
<path fill-rule="evenodd" clip-rule="evenodd" d="M357.886 45.5966V42.0203H364.099V7.63935H357.886V4.30492H368.751V45.5966H357.886ZM345.082 44.0763C339.59 45.9767 329.429 46.2531 323.148 43.938C315.664 41.191 314.823 34.3494 314.823 34.3494L328.262 32.2071C328.262 32.2071 328.537 33.6929 329.738 34.6431C331.643 36.1635 337.685 35.887 337.633 33.5374C337.719 30.9286 333.875 30.272 328.829 28.8208C325.001 27.7151 317.02 25.7282 315.647 19.2494C313.759 10.2654 320.985 3.82116 334.939 4.1667C342.8 4.35675 349.15 6.60274 351.467 14.6365L338.457 16.4333C338.457 16.4333 338.045 13.6863 335.076 13.2889C329.584 12.5633 328.434 16.9516 334.287 18.2301C345.357 20.8562 350.901 23.9833 352.445 30.0474C353.252 33.1918 352.909 36.6472 351.21 39.1524C349.682 41.4329 347.725 43.1606 345.082 44.0763ZM296.51 44.6982L287.551 29.1145V44.5773L271.606 44.5946L271.555 5.09965L287.534 5.08238V20.1996L296.665 5.09965L313.811 5.13421L299.908 24.3806L313.811 44.6464L296.51 44.6982ZM266.749 25.4691V41.2601V43.2988V44.5082L251.971 44.56L240.42 26.0738L240.489 44.4391L226.501 44.5082V4.90961L241.811 4.89233L253.31 23.9833V5.01327L266.749 4.87505V8.054V22.3074V25.4691ZM205.596 38.1503L196.414 38.1676L194.835 44.5773L179.01 44.5082L191.677 4.96144H210.213L223.103 44.5946H207.175L205.596 38.1503ZM200.979 16.7788H200.722L198.199 28.9763H203.76L200.979 16.7788ZM141.594 4.99599H157.882V33.762L175.354 33.5547V44.5427H141.594V4.99599ZM127.057 44.249C124.688 44.4564 121.908 44.4909 118.87 44.4909H117.359L105.259 44.4736H100.556V4.8405L120.741 4.85778C122.217 4.85778 123.899 4.85778 125.151 5.03054C131.176 5.84256 135.158 8.71052 135.329 14.5674C135.57 22.5493 127.297 23.3786 127.297 23.3786C127.297 23.3786 134.042 22.9812 137.372 28.3716C138.384 29.9956 139.037 32.7945 138.608 35.4897C137.921 40.1199 133.562 43.6616 127.057 44.249ZM117.994 12.4942H114.39V19.9405H117.754C120.397 19.9405 122.337 19.4222 122.337 16.5197C122.337 13.4617 120.397 12.4942 117.994 12.4942ZM123.435 31.3087C123.195 28.6999 121.684 27.0758 117.617 27.0758H114.373V35.8006H117.806C122.062 35.8352 123.727 34.3667 123.435 31.3087ZM83.4961 4.30492H94.3605V7.65663H88.01V42.0376H94.3605V45.6139H83.4961V4.30492Z" fill="white"></path>
<path fill-rule="evenodd" clip-rule="evenodd" d="M66.9666 12.0163L73.0768 11.999L73.0253 16.0764L66.8293 16.0937L66.8808 18.6679H76.4408L76.4064 23.1426H59.6036V5.29561H76.4236L76.4579 9.59755L66.9838 9.61483V12.0163H66.9666ZM56.1022 21.6914C54.5575 23.0735 52.3263 23.6264 49.2197 23.54C46.834 23.5227 44.62 23.1599 43.1096 21.5531C41.5821 20.1364 40.9813 18.8061 40.9642 15.7654L40.9813 5.27833H47.1087L47.1945 14.7115C47.246 16.7156 47.1773 19.2035 49.6488 19.1862C52.189 19.1689 52.0689 16.5083 52.1032 14.6424L52.0689 5.27833H58.3163V15.8172C58.3163 18.7888 57.8529 20.1019 56.1022 21.6914ZM38.527 18.4606C39.4366 21.8123 40.1575 23.1772 40.1575 23.1772L33.275 23.1944C33.275 23.1944 32.9317 22.6589 32.64 20.8102C31.8333 15.489 28.5036 16.2491 28.5036 16.2491L28.5723 23.1253L22.0845 23.1599L21.9472 5.27833L30.8207 5.20923C36.742 5.1574 39.1449 7.317 39.1277 10.4441C39.0934 14.5387 35.2145 14.8497 35.2145 14.8497C36.9995 15.2471 37.8748 16.1109 38.527 18.4606ZM30.8207 8.49183L28.5036 8.52638L28.5379 12.9493H28.6752H30.8893C32.8288 12.932 33.1205 11.6362 33.1205 10.7033C33.1034 9.47661 32.5713 8.47455 30.8207 8.49183ZM15.8027 23.1944H9.3665V9.6321L4.16602 9.59755V5.27833H21.0376V9.59755L15.7856 9.61483L15.8027 23.1944Z" fill="white"></path>
</svg>
